<?xml version="1.0" encoding="UTF-8" standalone="no"?>
<!-- Created with Inkscape (http://www.inkscape.org/) -->

<svg
   width="32.514923mm"
   height="93.255402mm"
   viewBox="0 0 32.514923 93.255402"
   version="1.1"
   id="svg1"
   xml:space="preserve"
   xmlns="http://www.w3.org/2000/svg"
   xmlns:svg="http://www.w3.org/2000/svg"><defs
     id="defs1" /><g
     id="layer1"
     transform="translate(-75.563234,-71.509573)"><path
       style="fill:#cccccc"
       d="m 87.550479,164.49142 c -1.038862,-0.30062 -2.544906,-2.01343 -2.940958,-3.34471 -0.162672,-0.54681 -1.013866,-5.28044 -1.891542,-10.51919 -0.877676,-5.23875 -1.720501,-9.96681 -1.872945,-10.50679 -0.152444,-0.53999 -0.796375,-1.59005 -1.430958,-2.33349 -1.607648,-1.88341 -2.755657,-4.35992 -3.345073,-7.21607 -0.439457,-2.12949 -0.502574,-3.64786 -0.505616,-12.16328 -0.0032,-8.87828 0.04043,-9.85496 0.498026,-11.15691 1.13325,-3.2243 3.16198,-5.06969 7.039123,-6.40299 1.993944,-0.68568 2.442022,-0.73405 7.728257,-0.83419 6.306416,-0.119458 8.663095,0.18883 11.590537,1.51619 2.14418,0.97222 3.54633,2.27168 4.65269,4.31195 l 0.89935,1.65849 0.0774,10.64386 c 0.0725,9.97123 0.0431,10.78841 -0.46586,12.93131 -0.61427,2.58638 -2.09223,5.6108 -3.36273,6.88131 -0.46996,0.46995 -1.0374,1.4295 -1.26098,2.13233 -0.22358,0.70282 -1.12315,5.62364 -1.99904,10.93515 -0.87589,5.31151 -1.780186,10.08616 -2.009546,10.61034 -0.552294,1.2622 -1.568728,2.32854 -2.650329,2.78046 -1.013408,0.42343 -7.358957,0.47872 -8.749806,0.0762 z m 1.521014,-66.683984 c -3.403611,-0.564585 -7.203476,-3.272544 -8.983802,-6.402271 -2.238582,-3.935316 -2.278733,-9.347042 -0.0975,-13.141188 5.322276,-9.257837 18.79805,-8.932217 23.454379,0.566736 3.25705,6.644396 0.59321,14.592214 -5.961811,17.787634 -2.758504,1.344706 -5.30386,1.70454 -8.411265,1.189089 z"
       id="path1" /></g></svg>
